HIERARCHY
ROOT hip
{
  OFFSET 0 0 0
  CHANNELS 6 Xposition Yposition Zposition Zrotation Yrotation Xrotation
  JOINT abdomen
  {
    OFFSET 0 20.6881 -0.73152
    CHANNELS 3 Zrotation Xrotation Yrotation
    JOINT chest
    {
      OFFSET 0 11.7043 -0.48768
      CHANNELS 3 Zrotation Xrotation Yrotation
      JOINT neck
      {
        OFFSET 0 22.1894 -2.19456
        CHANNELS 3 Zrotation Xrotation Yrotation
        JOINT head
        {
          OFFSET -0.24384 7.07133 1.2192
          CHANNELS 3 Zrotation Xrotation Yrotation
          JOINT leftEye
          {
            OFFSET 4.14528 8.04674 8.04672
            CHANNELS 3 Zrotation Xrotation Yrotation
            End Site
            {
              OFFSET 1 0 0
            }
          }
          JOINT rightEye
          {
            OFFSET -3.6576 8.04674 8.04672
            CHANNELS 3 Zrotation Xrotation Yrotation
            End Site
            {
              OFFSET 1 0 0
            }
          }
        }
      }
      JOINT rCollar
      {
        OFFSET -2.68224 19.2634 -4.8768
        CHANNELS 3 Zrotation Xrotation Yrotation
        JOINT rShldr
        {
          OFFSET -8.77824 -1.95073 1.46304
          CHANNELS 3 Zrotation Xrotation Yrotation
          JOINT rForeArm
          {
            OFFSET -28.1742 -1.7115 0.48768
            CHANNELS 3 Zrotation Xrotation Yrotation
            JOINT rHand
            {
              OFFSET -22.5879 0.773209 7.07136
              CHANNELS 3 Zrotation Xrotation Yrotation
              JOINT rThumb1
              {
                OFFSET -1.2192 -0.487915 3.41376
                CHANNELS 3 Zrotation Xrotation Yrotation
                JOINT rThumb2
                {
                  OFFSET -3.37035 -0.52449 3.41376
                  CHANNELS 3 Zrotation Xrotation Yrotation
                  End Site
                  {
                    OFFSET -1.78271 -1.18214 1.43049
                  }
                }
              }
              JOINT rIndex1
              {
                OFFSET -7.75947 0.938293 5.60832
                CHANNELS 3 Zrotation Xrotation Yrotation
                JOINT rIndex2
                {
                  OFFSET -2.54057 -0.884171 1.56538
                  CHANNELS 3 Zrotation Xrotation Yrotation
                  End Site
                  {
                    OFFSET -1.62519 -0.234802 1.16502
                  }
                }
              }
              JOINT rMid1
              {
                OFFSET -8.24714 1.18213 3.41376
                CHANNELS 3 Zrotation Xrotation Yrotation
                JOINT rMid2
                {
                  OFFSET -3.10165 -0.590103 1.0647
                  CHANNELS 3 Zrotation Xrotation Yrotation
                  End Site
                  {
                    OFFSET -2.48547 -0.328903 0.83742
                  }
                }
              }
              JOINT rRing1
              {
                OFFSET -8.82822 0.546677 1.51678
                CHANNELS 3 Zrotation Xrotation Yrotation
                JOINT rRing2
                {
                  OFFSET -2.60934 -0.819778 -0.0198488
                  CHANNELS 3 Zrotation Xrotation Yrotation
                  End Site
                  {
                    OFFSET -2.33842 -0.294052 0.168128
                  }
                }
              }
              JOINT rPinky1
              {
                OFFSET -8.27202 -0.0477905 -0.4584
                CHANNELS 3 Zrotation Xrotation Yrotation
                JOINT rPinky2
                {
                  OFFSET -1.82734 -0.647385 -0.700984
                  CHANNELS 3 Zrotation Xrotation Yrotation
                  End Site
                  {
                    OFFSET -1.69225 -0.51767 -0.607171
                  }
                }
              }
            }
          }
        }
      }
      JOINT lCollar
      {
        OFFSET 2.68224 19.2634 -4.8768
        CHANNELS 3 Zrotation Xrotation Yrotation
        JOINT lShldr
        {
          OFFSET 8.77824 -1.95073 1.46304
          CHANNELS 3 Zrotation Xrotation Yrotation
          JOINT lForeArm
          {
            OFFSET 28.1742 -1.7115 0.48768
            CHANNELS 3 Zrotation Xrotation Yrotation
            JOINT lHand
            {
              OFFSET 22.5879 0.773209 7.07136
              CHANNELS 3 Zrotation Xrotation Yrotation
              JOINT lThumb1
              {
                OFFSET 1.2192 -0.487915 3.41376
                CHANNELS 3 Zrotation Xrotation Yrotation
                JOINT lThumb2
                {
                  OFFSET 3.37035 -0.52449 3.41376
                  CHANNELS 3 Zrotation Xrotation Yrotation
                  End Site
                  {
                    OFFSET 1.78271 -1.18214 1.43049
                  }
                }
              }
              JOINT lIndex1
              {
                OFFSET 7.75947 0.938293 5.60832
                CHANNELS 3 Zrotation Xrotation Yrotation
                JOINT lIndex2
                {
                  OFFSET 2.54057 -0.884171 1.56538
                  CHANNELS 3 Zrotation Xrotation Yrotation
                  End Site
                  {
                    OFFSET 1.62519 -0.234802 1.16502
                  }
                }
              }
              JOINT lMid1
              {
                OFFSET 8.24714 1.18213 3.41376
                CHANNELS 3 Zrotation Xrotation Yrotation
                JOINT lMid2
                {
                  OFFSET 3.10165 -0.590103 1.0647
                  CHANNELS 3 Zrotation Xrotation Yrotation
                  End Site
                  {
                    OFFSET 2.48547 -0.328903 0.83742
                  }
                }
              }
              JOINT lRing1
              {
                OFFSET 8.82822 0.546677 1.51678
                CHANNELS 3 Zrotation Xrotation Yrotation
                JOINT lRing2
                {
                  OFFSET 2.60934 -0.819778 -0.0198488
                  CHANNELS 3 Zrotation Xrotation Yrotation
                  End Site
                  {
                    OFFSET 2.33842 -0.294052 0.168128
                  }
                }
              }
              JOINT lPinky1
              {
                OFFSET 8.27202 -0.0477905 -0.4584
                CHANNELS 3 Zrotation Xrotation Yrotation
                JOINT lPinky2
                {
                  OFFSET 1.82734 -0.647385 -0.700984
                  CHANNELS 3 Zrotation Xrotation Yrotation
                  End Site
                  {
                    OFFSET 1.69225 -0.51767 -0.607171
                  }
                }
              }
            }
          }
        }
      }
    }
  }
  JOINT rButtock
  {
    OFFSET -8.77824 4.35084 1.2192
    CHANNELS 3 Zrotation Xrotation Yrotation
    JOINT rThigh
    {
      OFFSET 0 -1.70687 -2.19456
      CHANNELS 3 Zrotation Xrotation Yrotation
      JOINT rShin
      {
        OFFSET 0 -36.8199 0.73152
        CHANNELS 3 Zrotation Xrotation Yrotation
        JOINT rFoot
        {
          OFFSET 0.73152 -45.1104 -5.12064
          CHANNELS 3 Zrotation Xrotation Yrotation
          End Site
          {
            OFFSET -1.1221 -3.69964 12.103
          }
        }
      }
    }
  }
  JOINT lButtock
  {
    OFFSET 8.77824 4.35084 1.2192
    CHANNELS 3 Zrotation Xrotation Yrotation
    JOINT lThigh
    {
      OFFSET 0 -1.70687 -2.19456
      CHANNELS 3 Zrotation Xrotation Yrotation
      JOINT lShin
      {
        OFFSET 0 -36.8199 0.73152
        CHANNELS 3 Zrotation Xrotation Yrotation
        JOINT lFoot
        {
          OFFSET -0.73152 -45.1104 -5.12064
          CHANNELS 3 Zrotation Xrotation Yrotation
          End Site
          {
            OFFSET 1.1221 -3.69964 12.103
          }
        }
      }
    }
  }
}
MOTION
Frames:	4
Frame Time:	0.00833333
-5.8016 84.2564 36.5466 0.0 0.0 0.0 -1.24153 -0.00398111 -0.0340793 -0.342498 -0.00249241 -0.0593279 -2.51101e-15 -1.59028e-15 1.49089e-16 -7.77124e-15 3.18055e-15 4.81432e-16 -0.0 0.0 0.0 -0.0 0.0 0.0 -1.34309e-15 1.28123e-17 2.48481e-16 -2.42916e-14 2.36057e-16 2.38542e-15 -4.59739e-13 1.44914e-13 1.27222e-14 -5.30558e-12 -1.00759e-13 3.4668e-13 -1.25122e-11 9.39302e-14 7.85597e-13 -2.16234e-11 1.59028e-13 1.33901e-12 -1.25079e-11 9.58142e-14 7.72875e-13 7.73091 5.47488 0.417314 -1.25128e-11 9.39258e-14 7.79236e-13 2.90554 0.965183 0.102902 -1.25034e-11 9.46215e-14 7.79236e-13 10.2786 0.731801 0.0259123 -1.25175e-11 9.54166e-14 7.85597e-13 2.22167 -0.733487 -0.20892 -1.34058e-15 1.14534e-17 -4.96962e-17 -2.89968e-14 3.23025e-16 9.93923e-16 -4.66249e-13 -1.3418e-13 6.36111e-14 -5.3235e-12 1.62606e-13 3.05333e-13 -1.25581e-11 5.99947e-14 7.79236e-13 -2.16826e-11 1.01778e-13 1.34617e-12 -1.25648e-11 6.12257e-14 7.82416e-13 -7.73091 5.47488 -0.417314 -1.25589e-11 6.11263e-14 7.79236e-13 -2.90554 0.965183 -0.102902 -1.25682e-11 6.02318e-14 7.7526e-13 -10.2786 0.731801 -0.0259123 -1.25546e-11 6.12257e-14 7.72875e-13 -2.22167 -0.733487 0.20892 -2.03217e-16 0.0 -3.88251e-19 -0.453616 -1.92099 -0.00953086 -0.00915724 -2.07857 -0.0755666 -0.487689 3.99699 0.136688 2.03217e-16 0.0 3.88251e-19 -1.43706 -5.97118 0.129651 -0.00126574 5.25801 -0.0454276 0.507589 0.710721 -0.0722465
-7.00519 84.4974 36.2236 -3.2555 -4.9 0.01 -0.844524 0.183743 0.407115 -0.0958981 -1.03401 0.0374796 -0.485207 1.55608 -0.0118677 0.32055 -1.72252 0.0783246 -0.0 0.0 0.0 -0.0 0.0 0.0 1.0747e-14 6.69699e-15 -2.71896e-14 22.7227 8.41658 -3.82229 -6.03726 -3.23806 8.83017 0.0444743 4.68083 0.649942 6.17438e-13 6.79154e-11 -1.187e-10 -3.993e-13 1.18776e-10 -2.05276e-10 6.23822e-13 6.79168e-11 -1.18714e-10 7.73091 5.47488 0.417314 6.19593e-13 6.79126e-11 -1.18704e-10 2.90554 0.965183 0.102902 6.24823e-13 6.79159e-11 -1.18704e-10 10.2786 0.731801 0.0259123 6.12262e-13 6.79172e-11 -1.18698e-10 2.22167 -0.733487 -0.20892 1.07341e-14 6.69528e-15 -2.75344e-14 -24.1111 8.13384 2.67683 5.61916 -2.91161 -8.35239 -0.0153337 2.74734 -0.384511 -8.48744e-12 -2.81049e-11 -1.24144e-10 -1.56176e-11 -4.94625e-11 -2.1483e-10 -8.49433e-12 -2.81039e-11 -1.24138e-10 -7.73091 5.47488 -0.417314 -8.48993e-12 -2.81043e-11 -1.24145e-10 -2.90554 0.965183 -0.102902 -8.49624e-12 -2.81031e-11 -1.24147e-10 -10.2786 0.731801 -0.0259123 -8.48511e-12 -2.81019e-11 -1.2415e-10 -2.22167 -0.733487 0.20892 -2.03217e-16 0.0 -3.88251e-19 -1.18874 0.427817 -0.121147 -0.00477779 -2.0792 -0.0368419 -0.616472 -0.213028 -2.03875 2.03217e-16 0.0 3.88251e-19 0.164594 -3.50118 -1.51588 -0.0128522 5.15058 -0.0751851 0.0404099 -2.96075 5.71161
-6.9959 84.4957 36.2208 -3.2277 -4.8642 0.0225 -0.428075 0.381262 0.873275 0.169471 -2.12418 0.139852 -1.00081 3.20026 -0.0250578 0.670269 -3.53959 0.161073 -0.0 0.0 0.0 -0.0 0.0 0.0 2.29659e-14 1.41948e-14 -5.82097e-14 48.0124 17.1867 -8.14425 -11.3462 -6.4041 18.2529 -0.0254733 9.62699 1.35158 2.36234e-11 1.29941e-10 -2.42913e-10 3.78436e-11 2.27527e-10 -4.2021e-10 2.36321e-11 1.29942e-10 -2.4293e-10 7.73091 5.47488 0.417314 2.36287e-11 1.29935e-10 -2.42915e-10 2.90554 0.965183 0.102902 2.36294e-11 1.29941e-10 -2.42916e-10 10.2786 0.731801 0.0259123 2.36184e-11 1.29943e-10 -2.4291e-10 2.22167 -0.733487 -0.20892 2.29362e-14 1.41927e-14 -5.86073e-14 -50.4592 16.6717 5.69188 10.6458 -5.78291 -17.2496 0.0087291 5.65119 -0.793935 4.98873e-12 -4.32844e-11 -2.5388e-10 6.66793e-12 -7.66692e-11 -4.3943e-10 4.98152e-12 -4.32837e-11 -2.53871e-10 -7.73091 5.47488 -0.417314 4.98449e-12 -4.32843e-11 -2.53882e-10 -2.90554 0.965183 -0.102902 4.9813e-12 -4.32808e-11 -2.53881e-10 -10.2786 0.731801 -0.0259123 4.98981e-12 -4.32795e-11 -2.53885e-10 -2.22167 -0.733487 0.20892 -2.03217e-16 0.0 -3.88251e-19 -1.95655 2.91118 -0.239236 -0.00014635 -2.07986 0.00410296 -1.10057 -4.65153 -4.35237 2.03217e-16 0.0 3.88251e-19 2.01116 -0.890424 -3.24955 -0.0252093 5.03673 -0.106585 0.351673 -6.72612 11.8935
-6.99059 84.4947 36.2186 -3.2129 -4.8428 0.0322 -0.0591901 0.559064 1.28956 0.407771 -3.09701 0.231414 -1.45368 4.66825 -0.0357083 0.975829 -5.16754 0.235826 -0.0 0.0 0.0 -0.0 0.0 0.0 3.49271e-14 2.00653e-14 -8.20658e-14 71.8001 24.7772 -12.511 -15.207 -8.79295 26.7873 -0.193438 14.0351 2.00315 2.68767e-11 2.03558e-10 -3.57671e-10 4.20489e-11 3.56009e-10 -6.18507e-10 2.68873e-11 2.03559e-10 -3.57689e-10 7.73091 5.47488 0.417314 2.68844e-11 2.0355e-10 -3.57669e-10 2.90554 0.965183 0.102902 2.68813e-11 2.03558e-10 -3.57672e-10 10.2786 0.731801 0.0259123 2.68717e-11 2.03561e-10 -3.57666e-10 2.22167 -0.733487 -0.20892 3.48836e-14 2.00629e-14 -8.25038e-14 -74.7909 24.178 8.71976 14.3805 -7.99386 -25.2873 0.0655975 8.24052 -1.16423 -3.46043e-13 -8.44347e-11 -3.73991e-10 -3.48747e-12 -1.48591e-10 -6.47182e-10 -3.53419e-13 -8.44343e-11 -3.73979e-10 -7.73091 5.47488 -0.417314 -3.52048e-13 -8.44353e-11 -3.73993e-10 -2.90554 0.965183 -0.102902 -3.5222e-13 -8.44296e-11 -3.73991e-10 -10.2786 0.731801 -0.0259123 -3.46032e-13 -8.44281e-11 -3.73995e-10 -2.22167 -0.733487 0.20892 -2.03217e-16 0.0 -3.88251e-19 -2.63144 5.12533 -0.345761 0.00398366 -2.08045 0.0406078 -1.83829 -8.57946 -6.46153 2.03217e-16 0.0 3.88251e-19 3.7927 1.43017 -4.79854 -0.0363611 4.93571 -0.134671 1.32034 -9.87735 17.5243
